<?xml version="1.0" encoding="UTF-8"?> <svg xmlns="http://www.w3.org/2000/svg" xmlns:xlink="http://www.w3.org/1999/xlink" version="1.1" id="katman_1" x="0px" y="0px" viewBox="0 0 916.5 211.6" style="enable-background:new 0 0 916.5 211.6;" xml:space="preserve"> <style type="text/css"> .st0{fill:#FFFFFF;} .st1{fill-rule:evenodd;clip-rule:evenodd;fill:#FFFFFF;} </style> <g> <path class="st0" d="M307.7,143.6c-4.4,0-8.8-0.9-12.9-2.6c-8-3.4-14.3-9.7-17.7-17.7c-1.7-4.1-2.6-8.4-2.6-12.9v-22h-9.2V69.6h9.2 V40h18.8v29.6H322v18.8h-28.6v22c0,1.9,0.4,3.8,1.1,5.6c0.7,1.7,1.7,3.2,3,4.5c1.3,1.3,2.9,2.4,4.6,3.1c1.8,0.8,3.7,1.2,5.6,1.1 H322v18.8L307.7,143.6z"></path> <path class="st0" d="M397.4,129c-1.7,2.5-3.8,4.7-6.1,6.7c-2.3,2-4.7,3.7-7.4,5.1c-2.7,1.4-5.5,2.4-8.4,3.1c-2.9,0.7-6,1.1-9,1.1 c-10,0.1-19.7-3.9-26.8-11c-3.5-3.5-6.2-7.7-8.1-12.4c-2-5-3.1-10.3-3-15.7c-0.1-5.5,1-11,3-16.1c3.7-9.3,10.9-16.6,20.2-20.3 c4.7-1.9,9.7-2.9,14.7-2.8c3.1,0,6.1,0.4,9.1,1.1c8.9,2.2,16.7,7.5,21.9,15l-35.4,42.7c0.7,0.2,1.5,0.4,2.2,0.4 c0.7,0.1,1.5,0.1,2.2,0.1c1.8,0,3.6-0.2,5.3-0.8c1.7-0.5,3.3-1.2,4.8-2.2c2.2-1.6,4.3-3.5,6.2-5.5 M371.8,86.4 c-0.8-0.3-1.7-0.5-2.6-0.6c-0.9-0.1-1.8-0.1-2.7-0.1c-2.5,0-5,0.5-7.3,1.4c-2.2,0.9-4.3,2.3-6,4.1c-1.7,1.8-3.1,4-4,6.3 c-1,2.7-1.5,5.5-1.5,8.3c0,0.7,0,1.5,0.1,2.4s0.2,1.8,0.3,2.7s0.4,1.8,0.6,2.6c0.2,0.8,0.5,1.5,0.9,2.2L371.8,86.4z"></path> <path class="st0" d="M519.3,145h-18.9V70.9h4.6l6.2,7.2c6.1-5.6,14.1-8.7,22.4-8.7c4.4,0,8.8,0.9,12.8,2.6 c3.9,1.7,7.5,4.1,10.6,7.1c3,3,5.4,6.6,7.1,10.6c1.7,4.1,2.6,8.5,2.6,12.9V145h-18.9v-42.3c0-1.9-0.4-3.8-1.1-5.5 c-0.7-1.7-1.7-3.2-3-4.5c-1.3-1.3-2.8-2.3-4.5-3c-1.7-0.7-3.6-1.1-5.5-1.1c-1.9,0-3.8,0.4-5.6,1.1c-1.7,0.7-3.3,1.7-4.6,3 c-1.3,1.3-2.3,2.8-3,4.5c-0.7,1.7-1.1,3.6-1.1,5.5L519.3,145z"></path> <path class="st0" d="M651.7,107.3c0,5.3-1,10.6-3,15.5c-1.9,4.6-4.6,8.8-8.1,12.4c-3.4,3.5-7.5,6.3-12,8.2c-9.4,4-20.1,4-29.5,0 c-9.2-4-16.4-11.4-20.2-20.6c-2-4.9-3-10.2-3-15.5c0-5.4,1-10.7,3-15.6c1.9-4.6,4.6-8.8,8.1-12.4c3.4-3.5,7.5-6.3,12-8.2 c4.6-2,9.6-3,14.7-3c5.1,0,10.1,0.9,14.8,2.8c4.5,1.8,8.6,4.5,12,8c3.5,3.6,6.2,7.8,8.1,12.4C650.7,96.3,651.8,101.8,651.7,107.3z M632.7,107.3c0-2.8-0.5-5.6-1.5-8.3c-0.9-2.4-2.3-4.5-4-6.4c-1.7-1.8-3.7-3.2-6-4.1c-4.7-1.9-9.9-1.9-14.6,0 c-2.3,0.9-4.3,2.3-6,4.1c-1.7,1.8-3.1,4-4,6.4c-1,2.6-1.5,5.4-1.5,8.3c0,2.7,0.5,5.5,1.5,8c0.9,2.4,2.3,4.5,4,6.4 c1.7,1.8,3.7,3.2,6,4.3c2.3,1,4.8,1.6,7.3,1.6c2.5,0,5-0.5,7.3-1.5c2.3-0.9,4.3-2.3,6-4.1c1.7-1.8,3.1-4,4-6.4 C632.2,112.9,632.7,110.1,632.7,107.3L632.7,107.3z"></path> <path class="st0" d="M681.2,145h-19V41.4h19V145z"></path> <path class="st0" d="M767.2,107.3c0,5.3-1,10.6-3,15.5c-1.9,4.6-4.6,8.8-8.1,12.4c-3.4,3.5-7.5,6.3-12,8.2c-9.4,4-20.1,4-29.5,0 c-9.2-3.9-16.4-11.4-20.2-20.6c-2-4.9-3-10.2-3-15.5c0-5.4,1-10.7,3-15.6c3.7-9.3,11-16.7,20.2-20.6c4.6-2,9.6-3,14.7-3 c5.1,0,10.1,0.9,14.8,2.8c4.5,1.8,8.6,4.5,12,8c3.5,3.6,6.2,7.8,8.1,12.4C766.2,96.3,767.3,101.8,767.2,107.3z M748.2,107.3 c0-2.8-0.5-5.6-1.5-8.3c-0.9-2.4-2.3-4.5-4-6.4c-1.7-1.8-3.7-3.2-6-4.1c-4.7-1.9-9.9-1.9-14.6,0c-2.2,0.9-4.3,2.3-6,4.1 c-1.7,1.8-3.1,4-4,6.4c-1,2.6-1.5,5.4-1.5,8.3c0,2.7,0.5,5.4,1.5,8c0.9,2.4,2.3,4.5,4,6.4c1.7,1.8,3.7,3.2,6,4.3 c2.3,1,4.8,1.6,7.3,1.6c2.5,0,5-0.5,7.3-1.5c2.3-0.9,4.3-2.3,6-4.1c1.7-1.8,3.1-4,4-6.4C747.7,112.9,748.2,110.1,748.2,107.3 L748.2,107.3z"></path> <path class="st0" d="M749.5,173.2v-19l10.5,0.1c2.4,0,4.9-0.5,7.1-1.6c2.1-1,4-2.4,5.6-4.2c1.6-1.8,2.9-3.8,3.8-6 c0.9-2.3,1.4-4.7,1.4-7.1V70.9h19.3v64.6h-0.1c0,3.4-0.5,6.7-1.4,10c-0.9,3.2-2.2,6.2-3.8,9c-1.7,2.8-3.7,5.3-6,7.6 c-2.3,2.3-4.9,4.2-7.7,5.9c-2.8,1.6-5.9,2.9-9,3.8c-3.3,0.9-6.6,1.4-10,1.4L749.5,173.2z"></path> <path class="st0" d="M800.2,50.8c0,1.7-0.3,3.4-1,4.9c-0.6,1.5-1.6,2.8-2.7,4c-1.2,1.1-2.5,2.1-4,2.7c-1.5,0.7-3.2,1-4.9,1 c-1.7,0-3.4-0.3-5-1c-1.5-0.6-2.9-1.6-4-2.7c-1.2-1.1-2.1-2.5-2.7-4c-1.3-3.1-1.3-6.7,0-9.8c0.6-1.5,1.6-2.9,2.7-4 c1.2-1.1,2.5-2.1,4-2.7c1.6-0.7,3.3-1,5-1c1.7,0,3.3,0.3,4.9,1c3,1.3,5.4,3.7,6.7,6.7C799.9,47.4,800.2,49.1,800.2,50.8z"></path> <path class="st0" d="M833.6,50.8c0,1.7-0.3,3.4-1,4.9c-0.6,1.5-1.6,2.9-2.7,4c-1.2,1.1-2.5,2.1-4,2.7c-3.2,1.3-6.7,1.3-9.9,0 c-1.5-0.6-2.9-1.6-4-2.7c-1.1-1.2-2.1-2.5-2.7-4c-1.3-3.1-1.3-6.7,0-9.8c1.3-3,3.6-5.5,6.7-6.7c3.2-1.3,6.7-1.3,9.9,0 c1.5,0.6,2.8,1.6,4,2.7c1.2,1.1,2.1,2.5,2.7,4C833.2,47.4,833.6,49.1,833.6,50.8z M830.4,145h-19V70.9h19V145z"></path> <path class="st0" d="M916.5,135.7c0,5-1,10-3,14.7c-1.9,4.5-4.7,8.6-8.1,12c-3.5,3.4-7.5,6.2-12,8.1c-4.6,2-9.7,3-14.7,3l-9.5-0.1 v-18.9l9.3,0.1c2.6,0.1,5.1-0.3,7.5-1.1c1.9-0.7,3.7-1.7,5.3-3.1c1.4-1.3,2.6-2.8,3.4-4.5c0.9-1.7,1.5-3.5,2-5.4 c-0.8,1.2-1.9,2.3-3.2,2.9c-1.4,0.8-3,1.4-4.6,1.9c-1.7,0.5-3.5,0.8-5.3,1c-1.8,0.2-3.5,0.3-5.1,0.3c-5,0-10-0.9-14.7-2.7 c-9.2-3.5-16.6-10.8-20.2-20c-2.1-5.2-3.1-10.8-3-16.4c0-5.3,1-10.6,3-15.6c1.9-4.6,4.6-8.9,8.1-12.4c3.4-3.5,7.5-6.3,12-8.2 c4.6-2,9.6-3,14.7-3c2.4,0,4.8,0.3,7.1,0.9c2.4,0.6,4.7,1.4,6.8,2.5c2.2,1.1,4.4,2.3,6.4,3.7c2,1.4,3.9,3,5.6,4.6L912,71h4.6 L916.5,135.7z M897.5,107.3c0-2.6-0.5-5.1-1.5-7.5c-0.9-2.4-2.3-4.5-4-6.4c-1.7-1.9-3.7-3.4-6-4.5c-2.3-1.1-4.8-1.7-7.3-1.7 c-2.5,0-5,0.4-7.3,1.3c-2.3,0.8-4.3,2.2-6,3.9c-1.8,1.8-3.1,4-4,6.3c-1,2.8-1.5,5.7-1.5,8.6c0,2.8,0.5,5.7,1.5,8.3 c0.9,2.4,2.3,4.5,4,6.3c1.7,1.7,3.7,3.1,6,4c2.3,0.9,4.8,1.4,7.3,1.4c2.5,0,5-0.6,7.3-1.7c2.3-1.1,4.3-2.6,6-4.5 c1.7-1.9,3.1-4.1,4-6.4C897,112.4,897.5,109.9,897.5,107.3L897.5,107.3z"></path> <polygon class="st0" points="493,71 471.2,71 443.1,106.7 443.1,80 424,103.7 424,145 443.1,145 443.1,135.5 456.2,118.1 471.2,145 493,145 468.4,101.9 "></polygon> <polygon class="st0" points="433.3,80.6 421.6,95.1 420.1,93.8 431.7,79.3 430.2,78.2 418.6,92.7 417,91.4 428.6,76.9 427,75.6 415.4,90.1 413.8,88.8 425.4,74.3 423.8,73 412.2,87.5 410.6,86.2 422.2,71.7 420.6,70.4 382.8,117.5 397.2,129.1 435,82 "></polygon> <path class="st0" d="M433.3,58.6l-5.3,1.7c-0.1,0-0.1,0.1-0.2,0.1l-3.7,4.7c0,0.1-0.1,0.1-0.1,0.2c0,0,0,0.1,0,0.1 c0,0.1,0.1,0.2,0.2,0.2l5.5,1.4c0,1.1,0.3,2.1,0.9,3l-1.6,2.2c-0.1,0.1-0.1,0.3,0,0.4l1.7,1.5c0.1,0.1,0.2,0.1,0.2,0.1 c0.1,0,0.2-0.1,0.2-0.1l1.8-2.2c1.2,0.3,2.4,0.3,3.5,0l2.2,5.3c0,0.1,0.1,0.2,0.2,0.2c0.1,0,0.2,0,0.3-0.1l4.2-4.3 c0-0.1,0.1-0.1,0.1-0.2l0.8-5.5c1.2-1.2,2.4-2.4,3.4-3.7c6.5-7.9,7.3-14,7.2-16.8c0-0.5-0.1-1-0.2-1.5c0-0.1-0.1-0.2-0.3-0.2 c-0.3,0-8.5-1-18.6,9.9C435,56.2,434.1,57.3,433.3,58.6z M439.2,58.8c-0.1-1.8,1.4-3.4,3.2-3.4c1.8-0.1,3.4,1.4,3.4,3.2 c0.1,1.8-1.4,3.4-3.2,3.4C440.8,62.1,439.3,60.7,439.2,58.8C439.2,58.9,439.2,58.8,439.2,58.8z"></path> </g> <path class="st1" d="M238.5,38.2c-7-16.2-19.8-31-37.2-36.1c-15.4-4.5-31.9-1-47.3,3.4C117.9,15.9,83.4,31.2,51.5,51.1 c-14.7,9.2-27.3,21-38.6,34.1c-15.1,17.5-17.3,37.1-5,49.3c40,39.6,132.3,72.8,180.3,76.6c18,1.4,37.5,0.5,48.4-16.3 c9-13.9,11.8-50,12.7-66C251.1,100.4,249.9,64.3,238.5,38.2z M99.5,135.8l-0.1,0.1c-3,3.5-8.3,4-11.9,0.9c-0.2-0.1-0.3-0.3-0.4-0.4 l-22.4-22.1c-3.2-3.2-3.3-8.3-0.3-11.7l22.4-24.5c3.1-3.5,8.4-3.8,11.9-0.8c3.5,3.1,3.8,8.4,0.8,11.9c-0.1,0.1-0.2,0.2-0.3,0.3 l-11.6,12.2c-3.2,3.4-3,8.7,0.3,11.9l11.1,10.5C102.1,127.3,102.4,132.4,99.5,135.8L99.5,135.8z M157.9,100.6c0,2.1-1.7,3.7-3.7,3.7 h-15.8c-2.1,0-3.7,1.7-3.7,3.7v15c0,1.6,0.3,3.2,0.9,4.8c0.6,1.4,1.4,2.7,2.5,3.9c1.1,1.1,2.3,2,3.7,2.6c1.4,0.7,3,1,4.5,1h7.9 c2.1,0,3.7,1.7,3.7,3.7v8.6c0,2.1-1.7,3.7-3.7,3.7h-7.9c-3.6,0-7.2-0.7-10.4-2.2c-3.2-1.4-6.1-3.5-8.5-6.1c-5.1-5.4-7.9-12.6-7.9-20 v-15c0-2.1-1.7-3.7-3.7-3.7h0c-2.1,0-3.7-1.7-3.7-3.7l0,0v-8.6c0-2.1,1.7-3.7,3.7-3.7c0,0,0,0,0,0c2.1,0,3.7-1.7,3.7-3.7v0V66.8 c0-2.1,1.7-3.7,3.7-3.7c0,0,0,0,0,0h7.8c2.1,0,3.7,1.7,3.7,3.7c0,0,0,0,0,0v17.8c0,2.1,1.7,3.7,3.7,3.7h15.8c2.1,0,3.7,1.7,3.7,3.7 L157.9,100.6z M206.4,114.3L184,136.4c-3.3,3.3-8.7,3.2-11.9-0.1c-0.1-0.1-0.3-0.3-0.4-0.4l-0.1-0.1c-2.9-3.4-2.6-8.5,0.6-11.6 l11-10.5c3.4-3.2,3.5-8.5,0.3-11.9l-11.6-12.2c-3.3-3.3-3.2-8.6,0.1-11.9c3.3-3.3,8.6-3.2,11.9,0.1c0.1,0.1,0.2,0.2,0.3,0.3 l22.4,24.5C209.7,106,209.6,111.1,206.4,114.3L206.4,114.3z"></path> </svg> 