<?xml version="1.0" encoding="UTF-8"?> <svg xmlns="http://www.w3.org/2000/svg" xmlns:xlink="http://www.w3.org/1999/xlink" viewBox="0 0 486.14 107.09"><defs><style>.cls-1,.cls-2{fill:none;}.cls-2{clip-rule:evenodd;}.cls-3{clip-path:url(#clip-path);}.cls-4{clip-path:url(#clip-path-2);}.cls-5{fill:url(#radial-gradient);}.cls-6{opacity:0.95;}.cls-7{clip-path:url(#clip-path-3);}.cls-8{clip-path:url(#clip-path-4);}.cls-9{fill:url(#radial-gradient-2);}.cls-10{clip-path:url(#clip-path-5);}.cls-11{fill:url(#radial-gradient-3);}.cls-12{fill:url(#linear-gradient);}.cls-13{fill:url(#linear-gradient-2);}.cls-14{fill:url(#linear-gradient-3);}.cls-15{fill:url(#linear-gradient-4);}.cls-16{fill:url(#linear-gradient-5);}.cls-17{fill:url(#linear-gradient-6);}.cls-18{fill:url(#linear-gradient-7);}.cls-19{fill:url(#linear-gradient-8);}</style><clipPath id="clip-path"><rect class="cls-1" x="27.66" y="0.3" width="46.35" height="25.77"></rect></clipPath><clipPath id="clip-path-2"><path class="cls-2" d="M29.39,9.18l41-8.76C72.39,0,74,.68,74,2l-.36,19.93c0,1.23-1.67,2.31-3.61,2.39L29.6,26.06a1.58,1.58,0,0,1-1.76-1.44L27.66,11.1a2.13,2.13,0,0,1,1.73-1.92"></path></clipPath><radialGradient id="radial-gradient" cx="-743.38" cy="813.81" r="2.55" gradientTransform="matrix(7.35, 0, 0, -7.35, 5514.79, 5994.77)" gradientUnits="userSpaceOnUse"><stop offset="0" stop-color="#1a6198"></stop><stop offset="0.34" stop-color="#1a578d"></stop><stop offset="0.93" stop-color="#1c3e6f"></stop><stop offset="1" stop-color="#1c3a6b"></stop></radialGradient><clipPath id="clip-path-3"><rect class="cls-1" y="15.81" width="55.32" height="37.35"></rect></clipPath><clipPath id="clip-path-4"><path class="cls-2" d="M2,21.92l49.84-6.08c1.93-.23,3.51.9,3.51,2.53v32c0,1.64-1.58,2.88-3.51,2.77L2,50.31A2.23,2.23,0,0,1,0,48V24.35a2.42,2.42,0,0,1,2-2.43"></path></clipPath><radialGradient id="radial-gradient-2" cx="-759.1" cy="797.62" r="2.55" gradientTransform="matrix(9.25, 0, 0, -9.25, 7051.07, 7414.32)" gradientUnits="userSpaceOnUse"><stop offset="0" stop-color="#0070a3"></stop><stop offset="0.31" stop-color="#007bab"></stop><stop offset="0.47" stop-color="#0083b0"></stop><stop offset="0.61" stop-color="#0079a5"></stop><stop offset="0.86" stop-color="#005d87"></stop><stop offset="1" stop-color="#004b73"></stop></radialGradient><clipPath id="clip-path-5"><path class="cls-1" d="M101.14,31.75,14.67,39.17a1.77,1.77,0,0,0-1.61,1.73l-.32,43.17a2.13,2.13,0,0,0,1.59,2l86.79,20.48c2.3.55,4.19-.19,4.19-1.66V34c0-1.33-1.58-2.29-3.61-2.29l-.56,0"></path></clipPath><radialGradient id="radial-gradient-3" cx="-781.76" cy="771.75" r="2.55" gradientTransform="matrix(16.51, 0, 0, -16.51, 12969.66, 12814.57)" xlink:href="#radial-gradient"></radialGradient><linearGradient id="linear-gradient" x1="129.1" y1="12.23" x2="129.1" y2="72.07" gradientUnits="userSpaceOnUse"><stop offset="0" stop-color="#1c3a6b"></stop><stop offset="0.52" stop-color="#1a6198"></stop><stop offset="0.68" stop-color="#1a578d"></stop><stop offset="0.97" stop-color="#1c3e6f"></stop><stop offset="1" stop-color="#1c3a6b"></stop></linearGradient><linearGradient id="linear-gradient-2" x1="178.37" y1="13.6" x2="178.37" y2="72.07" xlink:href="#linear-gradient"></linearGradient><linearGradient id="linear-gradient-3" x1="225.49" y1="12.23" x2="225.49" y2="72.07" xlink:href="#linear-gradient"></linearGradient><linearGradient id="linear-gradient-4" x1="264.85" y1="28.22" x2="264.85" y2="72.62" xlink:href="#linear-gradient"></linearGradient><linearGradient id="linear-gradient-5" x1="323.19" y1="28.76" x2="323.19" y2="87.24" xlink:href="#linear-gradient"></linearGradient><linearGradient id="linear-gradient-6" x1="363.07" y1="13.6" x2="363.07" y2="72.07" xlink:href="#linear-gradient"></linearGradient><linearGradient id="linear-gradient-7" x1="402.45" y1="28.22" x2="402.45" y2="72.07" xlink:href="#linear-gradient"></linearGradient><linearGradient id="linear-gradient-8" x1="458.18" y1="28.76" x2="458.18" y2="87.24" xlink:href="#linear-gradient"></linearGradient></defs><title>iDisplay Logo</title><g id="katman_2" data-name="katman 2"><g id="Layer_1" data-name="Layer 1"><g class="cls-3"><g class="cls-4"><rect class="cls-5" x="27.65" width="46.38" height="26.1"></rect></g></g><g class="cls-6"><g class="cls-7"><g class="cls-8"><rect class="cls-9" y="15.61" width="55.32" height="37.65"></rect></g></g></g><g class="cls-10"><rect class="cls-11" x="12.73" y="31.72" width="92.58" height="75.37"></rect></g><path class="cls-12" d="M125.15,13.78c3.2-3.38,9.78-.82,9.32,3.65a5.17,5.17,0,0,1-5.39,5.12C124.24,22.92,122,16.7,125.15,13.78ZM125,72.07V28.76h8.22V72.07Z"></path><path class="cls-13" d="M176.77,13.6c10.6,0,18.09,1.64,23.12,4.56,7.67,4.85,9.77,12.7,9.77,24.67-.27,21.57-7.58,28.79-32.89,29.24H147.08V13.6Zm0,50.52c10.78,0,16.54-1.83,20-5.11,3.29-3.84,4-8.78,4-16.18s-.73-12.33-4-16c-3.29-3.47-9.23-5.29-20-5.29h-21.1V64.12Z"></path><path class="cls-14" d="M221.54,13.78c3.2-3.38,9.78-.82,9.32,3.65a5.17,5.17,0,0,1-5.39,5.12C220.63,22.92,218.44,16.7,221.54,13.78Zm-.18,58.29V28.76h8.22V72.07Z"></path><path class="cls-15" d="M240.82,58.73h8.77c1.65,4.11,6.67,6.21,15.17,6.31,9.87-.1,15.71-2.65,15.71-7,0-2.83-2.83-4.29-8.59-4.29H257.36c-10.69,0-16-3.75-16-11.24,0-8,7.95-14.25,22.93-14.25,9.41,0,19.92,3,23,13.06h-8.78q-2.88-5.34-14.25-5.48c-9.5.09-14.43,2.74-14.43,6.76,0,2.1,1.46,3.38,7.58,3.38h14.62c13.43,0,16.81,6.12,16.81,11.79,0,9.86-9.5,14.89-24.12,14.89C252,72.62,242.74,68.14,240.82,58.73Z"></path><path class="cls-16" d="M326.16,28.76c13.61,0,20.28,5,20.28,17.73v7.85c0,12.52-6.49,17.73-20.28,17.73H308.25V87.24h-8.32V41.83c0-9,4.39-13.07,13.53-13.07Zm12,18.19c0-4.3-.92-7-2.84-8.41s-5.29-2-10.14-2H314.46c-5.11,0-6.21,1.28-6.21,5.75v22h16.9c4.93,0,8.31-.73,10.14-2.1s2.84-4.2,2.84-8.31Z"></path><path class="cls-17" d="M359,72.07V13.6h8.22V72.07Z"></path><path class="cls-18" d="M426.29,51.15v8c0,9.13-4.65,13-13.33,13H400.35c-5.12,0-8.59-.27-12.52-1.46-5.48-1.92-9.23-5.57-9.23-13.25a11.45,11.45,0,0,1,4.66-9.68,16.92,16.92,0,0,1,5-2.2,43.07,43.07,0,0,1,12.06-1.37h16.9c-1.37-5.11-5.57-8.31-16.63-8.31a38.75,38.75,0,0,0-17.45,3.74V31.6a41.34,41.34,0,0,1,17.36-3.38C418.8,28.22,426.29,35.89,426.29,51.15ZM418,56.81v-5.3H397.79c-7,0-10.87,1.1-10.87,6,0,4.75,2.55,6.76,10.87,6.76h14.8c2.47,0,4-.27,4.57-.91s.82-2,.82-4.11Z"></path><path class="cls-19" d="M477.18,28.76h9L455.63,87.24h-9l7.86-15.08-24.3-43.4h9l19.64,34.9Z"></path></g></g></svg> 